<svg id="Layer_1" data-name="Layer 1" xmlns="http://www.w3.org/2000/svg" viewBox="0 0 350 350"><defs><style>.cls-1{opacity:0.75;}.cls-2{fill:#d9c6bf;}.cls-3{fill:#abd6dd;}.cls-4{fill:#6b9fb3;}.cls-5{fill:#b6bcce;}</style></defs><g id="Layer_2" data-name="Layer 2"><g id="Damasq_Header" data-name="Damasq Header"><g class="cls-1"><polygon class="cls-2" points="86.52 79.85 175 168.33 214.92 128.4 86.52 0 86.52 79.85"/><polygon class="cls-3" points="0 86.52 81.8 168.33 121.73 128.4 79.85 86.52 0 86.52"/><polygon class="cls-4" points="270.15 86.52 181.67 175 221.6 214.93 350 86.52 270.15 86.52"/><polygon class="cls-5" points="263.48 79.85 263.48 0 181.67 81.8 221.6 121.73 263.48 79.85"/><polygon class="cls-5" points="168.33 175 128.4 135.07 0 263.48 79.85 263.48 168.33 175"/><polygon class="cls-3" points="178.32 264.82 178.45 264.98 263.48 350 263.48 270.15 175 181.68 135.07 221.6 178.19 264.72 178.32 264.82"/><polygon class="cls-2" points="270.15 263.48 350 263.48 268.19 181.68 228.27 221.6 270.15 263.48"/><polygon class="cls-4" points="86.52 270.15 86.52 350 168.33 268.2 128.4 228.28 86.52 270.15"/></g></g></g></svg>