<svg xmlns="http://www.w3.org/2000/svg" viewBox="0 0 960 461.24"><defs><style>.cls-1{fill:#4a4f54;}</style></defs><g id="Layer_2" data-name="Layer 2"><g id="Layer_1-2" data-name="Layer 1"><g id="Layer_2-2" data-name="Layer 2"><g id="Layer_1-2-2" data-name="Layer 1-2"><g id="Logo"><path class="cls-1" d="M53.59,205.59C40.53,218.21,30.06,231.7,26.13,247a99.66,99.66,0,0,0-3.46,26.55c0,37.45,24.39,61,61,67.93V135.87l37.77,45.76V335.84l-7.83,7.83c40.53-2.65,86.66-25.69,90.6-71.44.11-66.64-101.66-115-127.07-176.83a112.32,112.32,0,0,1-8.31-42.25C68.81,30.49,75.34,10,83.65,0L88,1.3c.86,54.87,56.17,94.53,91.73,136.35S232,203,230.69,260.46c-1.3,62.7-54.88,128.48-127.19,128.48-4.8,0-9.12-.43-13.92-.86A98.86,98.86,0,0,1,0,288.36,119.52,119.52,0,0,1,10.8,239.8,74,74,0,0,1,50,202Z"/><path class="cls-1" d="M358,112.4a40.68,40.68,0,0,1,6.1,24.39,74.11,74.11,0,0,1-7,32.37,64.74,64.74,0,0,1-17.22,19h20.94V270.5c.86,27.41,6.1,46.13,21.58,44.84l22.23-17,7,10.47L360.73,352a63.46,63.46,0,0,1-33.13-35.72L288.42,352c-20.93-9.55-42.68-34.38-42.68-74.9V257.44c.38-84.77,104.47-97.61,107.49-143.75Zm-37.45,90.11C303.15,215.19,286,230,286,256.09V277c1.3,22.17,7.88,35.29,21.59,35.72l15.65-12.2a161,161,0,0,1-2.59-30.05Z"/><path class="cls-1" d="M454.29,149a60.36,60.36,0,0,1,36.16,30.92L524.87,149c33.94,10.79,48.56,43.17,48.56,95.35V399l-39.22-31.79V247.4c0-28.76-5.4-52.71-27.41-61.4l-10.37,8.69a183.13,183.13,0,0,1,6.1,49.64V348.9l-39.17-32.37V247.4c0-28.76-5.4-52.71-27.47-61.4L432,189.45V351.92H392.46V204.29Z"/><path class="cls-1" d="M700.4,112.4a41.06,41.06,0,0,1,6.1,24.39,74.74,74.74,0,0,1-7,32.37,64.7,64.7,0,0,1-17,19.16h20.88V270.5c.87,27.41,6.1,46.13,21.59,44.84l22.23-17,7,10.47-51,43.17a63.6,63.6,0,0,1-33.08-35.72l-38.8,35.66c-20.88-9.55-42.68-34.37-42.68-74.89V257.44c0-84.93,104.09-97.61,107.16-143.75ZM663,202.51c-17.43,12.68-34.42,27.46-34.42,53.58V277c1.29,22.17,7.82,35.29,21.58,35.72l15.7-12.2a162.71,162.71,0,0,1-2.59-30.05Z"/><path class="cls-1" d="M842.37,146.77a79.26,79.26,0,0,1-5.4,32.38c-12.19,23.47-43.16,30-65.29,31.78,15.22,14.35,67.94,58.38,62.27,92.32C824.78,332,793.43,355.54,771.68,356c-17-1.73-35.72-16.19-47-39.23L757,290.63c1.3,9.17,10.47,20.45,20,27.46a28,28,0,0,0,15.71,6.1c8.74,0,12.62-8.31,8.74-20.51-6.59-20.12-56.23-65.45-73-82.45l6.58-43.6c11.28-2.15,84.94-6.52,103.23-32.37Z"/><path class="cls-1" d="M921.15,324.51l-32.38,27.41c-27.62-13.06-39.28-40.95-39.28-81.42V237.8c0-53.58,13.38-76.62,47-88.39l35,28.28H960v264l-38.85,19.58ZM909.87,313l10.79-8.31V190.8l-8.25-5.4C895.41,188,888,208,888,234v31.35C888.13,295.32,892.93,311.45,909.87,313Zm30.76-201.75,14.89,14.89L940.63,141l-14.89-14.9Zm-43.6,0,14.89,14.68L897,140.78l-14.89-14.89Z"/><rect class="cls-1" x="501.44" y="115.35" width="21.04" height="21.04" transform="translate(60.95 398.88) rotate(-45)"/><rect class="cls-1" x="457.84" y="115.4" width="21.04" height="21.04" transform="translate(48.14 368.06) rotate(-45)"/><rect class="cls-1" x="479.05" y="85.83" width="21.04" height="21.04" transform="translate(75.26 374.4) rotate(-45)"/></g></g></g></g></g></svg>