<svg xmlns="http://www.w3.org/2000/svg" viewBox="0 0 810.1 810.1"><defs><style>.cls-1{opacity:0.75;}.cls-2{fill:#d9c6bf;}.cls-3{fill:#abd6dd;}.cls-4{fill:#6b9fb3;}.cls-5{fill:#b6bcce;}</style></defs><g id="Layer_2" data-name="Layer 2"><g id="Damasq_Header" data-name="Damasq Header"><g class="cls-1"><polygon class="cls-2" points="200.26 184.82 405.05 389.61 497.46 297.2 200.26 0 200.26 184.82"/><polygon class="cls-3" points="0 200.26 189.34 389.61 281.75 297.2 184.82 200.26 0 200.26"/><polygon class="cls-4" points="625.29 200.26 420.5 405.05 512.91 497.46 810.11 200.26 625.29 200.26"/><polygon class="cls-5" points="609.84 184.82 609.84 0 420.5 189.34 512.91 281.75 609.84 184.82"/><polygon class="cls-5" points="389.61 405.05 297.2 312.64 0 609.84 184.82 609.84 389.61 405.05"/><polygon class="cls-3" points="412.75 612.94 413.05 613.31 609.84 810.1 609.84 625.29 405.05 420.5 312.64 512.91 412.44 612.71 412.75 612.94"/><polygon class="cls-2" points="625.29 609.84 810.1 609.84 620.76 420.5 528.36 512.91 625.29 609.84"/><polygon class="cls-4" points="200.26 625.29 200.26 810.1 389.61 620.76 297.2 528.36 200.26 625.29"/></g></g></g></svg>