<svg xmlns="http://www.w3.org/2000/svg" viewBox="0 0 1200 86.12"><defs><style>.cls-1{fill:#1d1d1b;}.cls-2{fill:none;stroke:#1d1d1b;stroke-linecap:round;stroke-linejoin:round;stroke-width:0.69px;}</style></defs><g id="Layer_2" data-name="Layer 2"><g id="Layer_1-2" data-name="Layer 1"><path class="cls-1" d="M648.49,74.89A5.48,5.48,0,0,1,647,79a7.54,7.54,0,0,1-4,2.25c-1.49.36-3.07.17-3.88.65a8.32,8.32,0,0,0-1.37,1.21A13.86,13.86,0,0,1,636,84.53a15.52,15.52,0,0,1-1.91,1.14c-.17.08-.32.16-.57.26a3.19,3.19,0,0,1-.62.14,5.73,5.73,0,0,1-1.16,0,27,27,0,0,1-4.27-.69,76.1,76.1,0,0,1-8.2-2.4,44.07,44.07,0,0,1-7.78-3.64,49.36,49.36,0,0,1-18.14-17.87.1.1,0,0,1,0-.14.12.12,0,0,1,.13,0A108.2,108.2,0,0,0,605.8,72.83c2.18,1.72,4.4,3.39,6.73,4.91s4.75,2.9,7.24,4.19a30.63,30.63,0,0,0,7.86,2.87,14.38,14.38,0,0,0,4.12.3,5.54,5.54,0,0,0,1-.16,2.45,2.45,0,0,0,.39-.15l.36-.24A14,14,0,0,0,635,83.29c.48-.47,1-.93,1.42-1.45l.77-.77a4.55,4.55,0,0,1,.45-.4,2.29,2.29,0,0,1,.59-.38,5.67,5.67,0,0,1,2.42-.5c.72,0,1.38,0,2-.13a7.2,7.2,0,0,0,3.5-1.47,5.79,5.79,0,0,0,2.1-3.31.1.1,0,0,1,.12-.08A.09.09,0,0,1,648.49,74.89Z"/><path class="cls-1" d="M662.24,64.19A17,17,0,0,1,661.06,69a10.93,10.93,0,0,1-3.13,4.11,12,12,0,0,1-2.27,1.41,8.06,8.06,0,0,1-2.58.63,10.26,10.26,0,0,1-2.6-.18,6.21,6.21,0,0,1-.62-.14,5.1,5.1,0,0,1-.56-.16c-.31-.07-.62-.15-.81.19h0a.11.11,0,0,1-.15,0,.1.1,0,0,1-.05-.06.74.74,0,0,1,.26-.75,1.52,1.52,0,0,1,.72-.35c.52-.09.83-.15,1.25-.2.79-.13,1.55-.24,2.28-.41a13.27,13.27,0,0,0,4.2-1.36,9.55,9.55,0,0,0,3.16-3.25A17.87,17.87,0,0,0,662,64.15a.1.1,0,0,1,.12-.07A.12.12,0,0,1,662.24,64.19Z"/><path class="cls-1" d="M690,10.36a19,19,0,0,0-6,.78c-2,.51-3.94,1.09-5.89,1.71s-3.92,1.23-5.91,1.81c-1,.28-2,.56-3,.79A28.88,28.88,0,0,1,666,16c-2,.24-4.08.46-6.09.77A41.62,41.62,0,0,0,654.05,18a13,13,0,0,0-2.64,1.13,3.91,3.91,0,0,0-1.78,1.8,3.2,3.2,0,0,0,.14,2.47,10.49,10.49,0,0,0,1.52,2.47l-.06-.07c2.5,2.26,5,4.53,7.45,6.81a96.29,96.29,0,0,1,7.19,7.1c2.23,2.52,4.43,5.06,6.73,7.49,1.14,1.21,2.29,2.41,3.5,3.52a30.39,30.39,0,0,0,3.81,3.06c1.36.94,2.8,1.82,4.19,2.91a11.46,11.46,0,0,1,2,1.91,5.85,5.85,0,0,1,1.24,2.73,7.46,7.46,0,0,1-1.58,5.49,9.73,9.73,0,0,1-4.34,3.49,10.88,10.88,0,0,1-5.48.55,24.78,24.78,0,0,1-5.08-1.33,25.89,25.89,0,0,1-4.72-2.08,28.49,28.49,0,0,1-4-3.18.11.11,0,0,1,0-.15.11.11,0,0,1,.11,0c1.65.51,3.19,1.25,4.7,1.82l4.63,1.67c3.06,1,6.36,1.77,9.1.72A7.67,7.67,0,0,0,684,65.54a5.35,5.35,0,0,0,1.26-3.89,5.8,5.8,0,0,0-2.41-3.42c-1.24-1-2.65-1.92-4-2.91a26.23,26.23,0,0,1-4-3.35c-1.18-1.23-2.31-2.5-3.37-3.82-2.12-2.65-4.09-5.36-6.18-8a39.09,39.09,0,0,0-3.4-3.66c-1.18-1.18-2.43-2.3-3.68-3.42-2.5-2.23-5.1-4.36-7.73-6.43l0,0,0,0a11.31,11.31,0,0,1-1.86-2.66,4.6,4.6,0,0,1-.34-3.51,5.48,5.48,0,0,1,2.29-2.7,14.28,14.28,0,0,1,3-1.39c4.07-1.36,8.25-1.66,12.32-2.08a28.52,28.52,0,0,0,3-.39c1-.19,2-.42,3-.67l6-1.53c2-.48,4-1,6.07-1.29,1-.17,2.06-.3,3.1-.37a10.92,10.92,0,0,1,3.12.17.09.09,0,0,1,.07.12.09.09,0,0,1-.1.08Z"/><path class="cls-1" d="M531.52,57.37q2-1.82,4.12-3.53c1.39-1.16,2.8-2.29,4.23-3.41s2.85-2.21,4.32-3.26,3-2.06,4.46-3.09l0,0,.05,0a14.91,14.91,0,0,1,5.52-1,7,7,0,0,1,5.14,2.2,7.26,7.26,0,0,1,1.78,5.46,7.61,7.61,0,0,1-2.67,5.21l.06,0L556.45,58c-.71.73-1.44,1.44-2.18,2.14-1.5,1.39-3,2.75-4.65,4a46.41,46.41,0,0,1-5.07,3.48A27.19,27.19,0,0,1,539,70.18a.06.06,0,0,1-.08,0,.06.06,0,0,1,0-.08,39.65,39.65,0,0,0,5.16-3.14c1.62-1.18,3.21-2.41,4.73-3.73s3-2.68,4.45-4.07,2.91-2.79,4.34-4.21l0,0,0,0a6.85,6.85,0,0,0,2.43-4.32,6.57,6.57,0,0,0-1.2-4.92,6.1,6.1,0,0,0-4.66-2.22A11.59,11.59,0,0,0,549,44.69l.08,0c-1.4,1.15-2.77,2.32-4.19,3.44s-2.87,2.2-4.33,3.26-2.93,2.12-4.43,3.13-3,2-4.53,3a.07.07,0,0,1-.09,0A.07.07,0,0,1,531.52,57.37Z"/><path class="cls-1" d="M545.51,70.86a25,25,0,0,1-3.94,2.9c-.69.44-1.41.81-2.13,1.19a8.81,8.81,0,0,1-1.13.5c-.2.07-.39.15-.61.21l-.35.1-.22,0-.22,0a1.67,1.67,0,0,1-.21,0,.85.85,0,0,1-.42-.22l.59.22c-.7-.08-1.38-.14-2.06-.27s-1.34-.25-2-.49a11.31,11.31,0,0,1-3.71-1.77A8.18,8.18,0,0,1,526.43,70a11.77,11.77,0,0,1-1.07-4.16v-.11A9,9,0,0,1,526,63a10.08,10.08,0,0,1,1.38-2.36,12.08,12.08,0,0,1,1.87-1.91,10.22,10.22,0,0,1,2.22-1.39.1.1,0,0,1,.14.06.11.11,0,0,1,0,.11h0c-.55.65-1,1.33-1.51,2a20.11,20.11,0,0,0-1.23,2.07,13,13,0,0,0-.88,2.14,12.9,12.9,0,0,0-.45,2.19V65.8a13.09,13.09,0,0,0,.62,3.49,10.2,10.2,0,0,0,1.67,3.2A5.46,5.46,0,0,0,533,74.41l.46.11c.15,0,.32,0,.48,0,.31,0,.63,0,1,0,.63,0,1.26-.21,1.87-.29l.6.22a.72.72,0,0,0-.35-.2l-.15,0h-.06l.06,0,.23-.12.49-.26c.34-.19.7-.37,1-.55.73-.33,1.44-.69,2.19-1a29.07,29.07,0,0,1,4.6-1.61.1.1,0,0,1,.13.07A.11.11,0,0,1,545.51,70.86Z"/><path class="cls-1" d="M561,46.06a36.5,36.5,0,0,0,4.35-3.7,54.81,54.81,0,0,0,3.86-4.22l0,0a7.09,7.09,0,0,1,2.68-1.63,5.82,5.82,0,0,1,3.18-.11A6.26,6.26,0,0,1,577.88,38a7.24,7.24,0,0,1,1.67,2.74,8.89,8.89,0,0,1-.4,6.26,15.71,15.71,0,0,1-3.64,5.1,84.31,84.31,0,0,0-8,9,78.76,78.76,0,0,0-6.66,10l.09-.28a27.53,27.53,0,0,0-.24,6.58,11.53,11.53,0,0,0,.3,1.51,5.21,5.21,0,0,0,.25.67,2,2,0,0,0,.25.43l.57.43a3.86,3.86,0,0,0,.62.44,8.79,8.79,0,0,0,1.37.69,14.11,14.11,0,0,0,6.23.82,31.69,31.69,0,0,0,6.47-1.23A73.31,73.31,0,0,0,589.2,76c2-1,4-2.11,6-3.25s3.91-2.32,5.83-3.55a.1.1,0,0,1,.14,0,.11.11,0,0,1,0,.14,88.87,88.87,0,0,1-11.26,7.85A62.22,62.22,0,0,1,577.33,83a31.29,31.29,0,0,1-6.91,1.42,15.11,15.11,0,0,1-7.18-1,10.5,10.5,0,0,1-1.66-.87,5.06,5.06,0,0,1-.76-.55c-.26-.22-.45-.35-.77-.64a3.65,3.65,0,0,1-.63-1,7.46,7.46,0,0,1-.32-.94,12,12,0,0,1-.31-1.84,28.85,28.85,0,0,1,.43-7v0a.92.92,0,0,1,.09-.25,83.87,83.87,0,0,1,7.05-10.06,85,85,0,0,1,8.34-8.94,14.59,14.59,0,0,0,3.49-4.65A8,8,0,0,0,578.7,41a6.23,6.23,0,0,0-1.39-2.45,5.48,5.48,0,0,0-2.39-1.48,5.6,5.6,0,0,0-5.31,1.45l0,0a56.3,56.3,0,0,1-4,4.14,36.28,36.28,0,0,1-4.49,3.62.11.11,0,0,1-.14,0A.11.11,0,0,1,561,46.06Z"/><path class="cls-1" d="M573.23,69.07a4.94,4.94,0,0,1-.22,2.74,3.34,3.34,0,0,1-2,1.92,8.5,8.5,0,0,0,1.36-2.17C572.71,70.79,572.88,69.93,573.23,69.07Z"/><path class="cls-1" d="M579,46.06a7.9,7.9,0,0,1,3.29,1.51A5,5,0,0,1,583.48,49a5.75,5.75,0,0,1,.54,1.8,13.83,13.83,0,0,1-1.69,7.1,31.22,31.22,0,0,1-3.82,6.16,34,34,0,0,1-2.43,2.67,23.79,23.79,0,0,1-2.73,2.37.08.08,0,0,1-.1,0,.08.08,0,0,1,0-.08c1.42-1.94,2.83-3.84,4.19-5.76s2.79-3.79,3.93-5.84a13,13,0,0,0,2-6.53,4.33,4.33,0,0,0-1.32-3,7.5,7.5,0,0,0-3-1.68.06.06,0,0,1,0-.08A.09.09,0,0,1,579,46.06Z"/><path class="cls-1" d="M573.24,69.1a1.89,1.89,0,0,1,1.21,1.48,5.83,5.83,0,0,1,.08,2,9.23,9.23,0,0,1-1.22,3.58c.16-1.26.41-2.46.55-3.66a9.71,9.71,0,0,0,.07-1.78A2.15,2.15,0,0,0,573.24,69.1Z"/><path class="cls-1" d="M546,68a8,8,0,0,0,.81,4.31A6.27,6.27,0,0,0,550,74.9a19.21,19.21,0,0,0,4.28,1.22c1.49.31,3,.48,4.56.78a18.88,18.88,0,0,1-4.69.27,13.55,13.55,0,0,1-4.69-1,9.1,9.1,0,0,1-2.13-1.32,5.76,5.76,0,0,1-1.47-2.08,5.22,5.22,0,0,1-.35-1.21,6.4,6.4,0,0,1-.05-1.23A6.91,6.91,0,0,1,546,68Z"/><path class="cls-1" d="M526.46,70.27a22.22,22.22,0,0,1-5.68,2.25,11,11,0,0,1-6.25-.07,6.55,6.55,0,0,1-2.65-1.83,7.8,7.8,0,0,1-1.5-2.75,14.79,14.79,0,0,1-.55-6.1,8.71,8.71,0,0,1,.29-1.56,3.27,3.27,0,0,1,.37-.84l.5-.61a10.86,10.86,0,0,1,2.34-2.14,8.12,8.12,0,0,1,3-1.23,6.41,6.41,0,0,1,3.33.33A7.28,7.28,0,0,1,524,60.43a6.25,6.25,0,0,1,.11,3.21,5.42,5.42,0,0,1-1.58,2.68s-.07,0-.09,0a.06.06,0,0,1,0-.09,5.63,5.63,0,0,0,.55-5.45,6.51,6.51,0,0,0-3.8-3.69,6,6,0,0,0-5.18.63,11.73,11.73,0,0,0-2.23,1.77l-.5.52a2.6,2.6,0,0,0-.29.52,8.12,8.12,0,0,0-.43,1.37,10.12,10.12,0,0,0,.23,5.82,5.83,5.83,0,0,0,4.08,3.65,12.93,12.93,0,0,0,2.8.36,20.4,20.4,0,0,0,2.9-.25,54.34,54.34,0,0,0,5.83-1.34.07.07,0,0,1,.09,0A.07.07,0,0,1,526.46,70.27Z"/><path class="cls-2" d="M526.88,61.49c-1.36,0-2.35,0-3.18,0"/><path class="cls-1" d="M552.06,15.9c5.94-.25,11.87-.29,17.79-.2s11.84.25,17.76.73c3,.2,5.92.45,8.88.59a24,24,0,0,0,4.41-.11c1.46-.16,2.92-.38,4.36-.68a72.85,72.85,0,0,0,16.53-6l0,0h0a41.34,41.34,0,0,0,5.4-2.81c.89-.53,1.79-1.1,2.8-1.58a9.49,9.49,0,0,1,3.32-1,33.67,33.67,0,0,1,6.44.12c1.06.11,2.11.27,3.15.44.53.09,1,.2,1.58.31.25,0,.55.13.76.16A6.12,6.12,0,0,0,646,6a38.11,38.11,0,0,0,6-.25c.53,0,1.06-.06,1.63,0a5.53,5.53,0,0,1,1.81.26,12.4,12.4,0,0,1,1.5.73l1.37.77,5.42,3.09c1.8,1,3.6,2.08,5.45,3a.11.11,0,0,1,0,.14.1.1,0,0,1-.13,0c-3.94-1.41-7.68-3.28-11.45-5l-1.41-.66a12,12,0,0,0-1.32-.56,4.22,4.22,0,0,0-1.28-.08c-.47,0-1,.07-1.48.13a37.13,37.13,0,0,1-6.39.5A6.64,6.64,0,0,1,644.9,8c-.32,0-.51-.1-.77-.15l-1.5-.25c-1-.15-2-.26-3-.36a34.84,34.84,0,0,0-6-.17c-1.82.06-3.48,1.07-5.32,2.1a37.11,37.11,0,0,1-5.75,2.76l.07,0a61.26,61.26,0,0,1-8.46,3.08,77,77,0,0,1-8.72,2c-1.48.24-2.95.46-4.44.6-.74.08-1.49.12-2.24.19s-1.48,0-2.22,0c-3,0-5.93,0-8.89,0-5.94.12-11.87-.07-17.8-.36s-11.85-.68-17.76-1.29a.11.11,0,0,1,0-.21Z"/><path class="cls-1" d="M581.42,16.27A96.68,96.68,0,0,0,571,11.2c-3.55-1.48-7.18-2.7-10.82-4-.91-.35-1.82-.72-2.73-1.13a11.4,11.4,0,0,1-1.38-.72c-.45-.3-.83-.62-1.21-.93-.75-.64-1.47-1.27-2.23-1.84a11.18,11.18,0,0,0-2.44-1.4,6.79,6.79,0,0,0-5.41.13,13.8,13.8,0,0,0-4.36,3.52,25.7,25.7,0,0,1-2,2.19,7.59,7.59,0,0,1-1.28,1c-.46.27-.91.48-1.35.69-.87.42-1.71.86-2.55,1.31a10.28,10.28,0,0,0-2.13,1.54,2.79,2.79,0,0,0-1,1.82,2.35,2.35,0,0,0,1,1.69,14.66,14.66,0,0,0,4.75,2.41,15.55,15.55,0,0,0,5.33,1,15.22,15.22,0,0,0,5.35-1,17,17,0,0,0,4.81-2.8,11.81,11.81,0,0,0,3.5-4.39h0a.11.11,0,0,1,.14,0,.09.09,0,0,1,.06.11,11,11,0,0,1-3,5.1,17,17,0,0,1-4.89,3.53,15.72,15.72,0,0,1-5.94,1.49,16.43,16.43,0,0,1-6.08-.92,15.06,15.06,0,0,1-5.5-2.92,3.64,3.64,0,0,1-.59-.64,3.37,3.37,0,0,1-.51-.76,3.61,3.61,0,0,1-.46-1.93,4.77,4.77,0,0,1,1.69-3.16,11.12,11.12,0,0,1,2.65-1.74c.89-.42,1.8-.82,2.7-1.19a10,10,0,0,0,2.4-1.23A26.15,26.15,0,0,0,539.64,4a16.35,16.35,0,0,1,4.9-3.39A8.15,8.15,0,0,1,550.45.5a22.8,22.8,0,0,1,5.13,3A7.93,7.93,0,0,0,558,4.68c.89.31,1.83.56,2.75.85,7.39,2.26,14.81,5.47,20.78,10.57a.11.11,0,0,1,0,.14A.11.11,0,0,1,581.42,16.27Z"/><path class="cls-1" d="M512.74,60a7.6,7.6,0,0,1,3.41,1,8,8,0,0,1,2.63,2.48.24.24,0,0,1,0,.22c-.35.67-.58,1.4-1,2.08a2.73,2.73,0,0,1-.8.89,2.92,2.92,0,0,1-1.08.45,3.62,3.62,0,0,0,1-.6,3.17,3.17,0,0,0,.63-.9c.31-.67.55-1.41.88-2.12v.22a8.49,8.49,0,0,0-1.11-1.3,8.31,8.31,0,0,0-1.35-1.08,7.67,7.67,0,0,0-1.52-.82A10.53,10.53,0,0,0,512.74,60Z"/><path class="cls-1" d="M576.56,43.14c-.91-.85-1.79-1.61-2.64-2.46a4.23,4.23,0,0,0-1.49-1,7.56,7.56,0,0,0-1.73-.38l.23-.06c-.34.32-.69.64-1,1s-.65.66-1,1-.62.69-.91,1a8.55,8.55,0,0,0-.77,1.18l-.07,0a5.58,5.58,0,0,1,1.23-2.65,10,10,0,0,1,2.12-2l.13-.09.11,0a7.4,7.4,0,0,1,1.73.74c.54.31,1.1.56,1.65.87a5.18,5.18,0,0,1,1.44,1.19,5.65,5.65,0,0,1,1,1.58Z"/><path class="cls-1" d="M556.89,50.52a17.55,17.55,0,0,0-1.21-1.65c-.43-.5-.89-1-1.38-1.45a4.36,4.36,0,0,0-1.73-1.06,9.37,9.37,0,0,0-2-.36l.21,0c-.88.64-1.69,1.34-2.52,2s-1.64,1.41-2.44,2.16l-.06,0a11.81,11.81,0,0,1,2.05-2.62,14.56,14.56,0,0,1,1.25-1.09c.44-.33.91-.64,1.37-.94l.11-.07.1,0a7.91,7.91,0,0,1,2,.74c.63.31,1.26.61,1.89,1a4.93,4.93,0,0,1,.88.61,5.5,5.5,0,0,1,.7.83,5,5,0,0,1,.82,2Z"/><path class="cls-1" d="M530.9,11.86a3.76,3.76,0,0,0,1.43,1,13.75,13.75,0,0,0,1.63.58,30.64,30.64,0,0,0,3.39.75h-.08a5.6,5.6,0,0,0,2.9-1.12,8.79,8.79,0,0,0,2.08-2.5,6.17,6.17,0,0,1-1.71,2.94,5.33,5.33,0,0,1-3.21,1.33h-.08a20.38,20.38,0,0,1-3.44-1,10,10,0,0,1-1.61-.78A3.52,3.52,0,0,1,530.9,11.86Z"/><path class="cls-1" d="M581.57,50.71c-.54-.46-1-1-1.5-1.39s-1-.87-1.56-1.3a4.17,4.17,0,0,1,1.83,1A5.25,5.25,0,0,1,581.57,50.71Z"/><path d="M581.14,59.21c.53.17,1,.41,1.5.53a12.7,12.7,0,0,0,1.49.43c1,.22,2,.41,3,.55s2.06.24,3.1.37c.52.07,1.05.11,1.57.15l1.6.18v.07a29,29,0,0,1-6.38-.1,13.93,13.93,0,0,1-6-2.13Z"/><path d="M706.56,41.92,1200,43,706.56,44a1,1,0,1,1,0-2.06Z"/><path d="M498,44,0,43l498-1a1,1,0,0,1,1,1,1,1,0,0,1-1,1Z"/></g></g></svg>