<svg id="Layer_1" data-name="Layer 1" xmlns="http://www.w3.org/2000/svg" viewBox="0 0 611.1 810.1"><defs><style>.cls-1{fill:#d9c6bf;}.cls-2{fill:#abd6dd;}.cls-3{fill:#6b9fb3;}.cls-4{fill:#b6bcce;}</style></defs><polygon class="cls-1" points="497.56 297.2 200.36 0 200.36 184.82 405.15 389.61 497.56 297.2"/><polygon class="cls-2" points="281.85 297.2 184.92 200.26 0.1 200.26 189.44 389.61 281.85 297.2"/><polygon class="cls-3" points="420.6 405.05 513.01 497.46 611.1 399.37 611.1 214.55 420.6 405.05"/><polygon class="cls-4" points="609.94 184.82 609.94 0 420.6 189.34 513.01 281.75 609.94 184.82"/><polygon class="cls-4" points="297.3 312.64 0.1 609.84 184.92 609.84 389.71 405.05 297.3 312.64"/><polygon class="cls-2" points="312.74 512.91 412.54 612.71 412.85 612.94 413.15 613.31 609.94 810.1 609.94 625.29 405.15 420.5 312.74 512.91"/><polygon class="cls-1" points="611.1 595.55 611.1 430.26 528.46 512.91 611.1 595.55"/><polygon class="cls-3" points="200.36 625.29 200.36 810.1 389.71 620.76 297.3 528.36 200.36 625.29"/></svg>