<svg xmlns="http://www.w3.org/2000/svg" width="1280" height="160.261" viewBox="0 0 1280 160.261"><path d="M721.0457,80.1305l17.4672-.45,17.4673-.34,34.9347-.6714q34.9347-.5264,69.8693-.87c23.29-.2764,46.58-.3378,69.8692-.5l69.8694-.1658,69.8693.1576c23.29.1673,46.58.2206,69.8693.5q34.9345.3033,69.8693.87l34.9346.6756,17.4674.3418L1280,80.1305l-17.4673.4532-17.4674.3418-34.9346.6756q-34.9347.526-69.8693.87c-23.29.2791-46.58.3324-69.8693.5l-69.8693.1576-69.8694-.1657c-23.29-.1626-46.5794-.2241-69.8692-.5q-34.9347-.3021-69.8693-.87L755.98,80.9212l-17.4673-.34Z" fill="#6b9fb3"/><path d="M0,80.1305l17.4906-.45,17.49-.34,34.9811-.6714q34.9812-.5264,69.9623-.87c23.3207-.2764,46.6415-.3378,69.9622-.5l69.9623-.1658,69.9622.1576c23.3208.1673,46.6415.2206,69.9622.5q34.9812.3033,69.9623.87l34.9811.6756,17.4906.3418,17.49.4533-17.49.4532-17.4906.3418-34.9811.6756q-34.981.526-69.9623.87c-23.3207.2791-46.6414.3324-69.9622.5l-69.9622.1576-69.9623-.1657c-23.3207-.1626-46.6415-.2241-69.9622-.5q-34.9812-.3021-69.9623-.87l-34.9811-.6713-17.49-.34Z" fill="#6b9fb3"/><polygon points="599.487 36.562 640 77.075 658.281 58.794 599.487 0 599.487 36.562" fill="#d9c6bf"/><polygon points="559.869 39.618 597.327 77.075 615.607 58.794 596.431 39.618 559.869 39.618" fill="#abd6dd"/><polygon points="683.569 39.618 643.056 80.13 661.337 98.411 720.131 39.618 683.569 39.618" fill="#6b9fb3"/><polygon points="680.513 36.562 680.513 0 643.056 37.457 661.337 55.738 680.513 36.562" fill="#b6bcce"/><polygon points="636.944 80.13 618.663 61.85 559.87 120.643 596.431 120.643 636.944 80.13" fill="#b6bcce"/><polygon points="641.524 121.256 641.582 121.33 680.513 160.261 680.513 123.699 640 83.186 621.719 101.467 641.462 121.21 641.524 121.256" fill="#abd6dd"/><polygon points="683.569 120.643 720.13 120.643 682.674 83.186 664.393 101.467 683.569 120.643" fill="#d9c6bf"/><polygon points="599.487 123.699 599.487 160.261 636.944 122.804 618.663 104.523 599.487 123.699" fill="#6b9fb3"/></svg>